<svg xmlns="http://www.w3.org/2000/svg" viewBox="0 0 44.12 64.15"><defs><style>.a{fill:#b3c7ef;}.a,.b{stroke:#000;stroke-miterlimit:10;}</style></defs><path class="a" d="M46.5,17.5c3.64-4.55,11.1-3.61,13-5,3.1-2.27,2.62-7,3-7,.62,0,2.88,12.81-3,17-2,1.44-4.44,1.47-6,4-1.17,1.91-1.47,4.06-1,5,6,12,3.74,17.86,2,23-2.42,7.14-14,12.41-22,9-5-2.15-7.22-7.19-8-9-3.63-8.35-.3-17.23,0-18,1.66-4.25,3.55-5.36,3-8-.85-4.1-5.95-4.13-7-8-1.48-5.44,6.75-12.19,7-12s-2.51,2.44-2,5,4.14,4.38,7,5C40.47,20.22,42.5,22.5,46.5,17.5Z" transform="translate(-19.82 -0.91)"/><path class="a" d="M37.5,28.5c-4.66-6.09-4.82-9.75-4-12,1.1-3,4-3.48,6-8,1.83-4,1.27-7.73,2-7,2,2,5.5,5.57,4,10-1,3-4,3.39-4,6,0,2.19,2,2.87,3,6a10.7,10.7,0,0,1,0,6" transform="translate(-19.82 -0.91)"/><ellipse class="b" cx="24.68" cy="45.09" rx="1" ry="2.5"/><ellipse class="b" cx="15.68" cy="45.09" rx="1" ry="2.5"/></svg>